<?xml version="1.0" encoding="UTF-8"?>
<svg id="Capa_2" data-name="Capa 2" xmlns="http://www.w3.org/2000/svg" viewBox="0 0 329.24 344.07">
  <defs>
    <style>
      .cls-1, .cls-2, .cls-3 {
        fill: none;
      }
      .cls-4 {
        fill: currentColor;
      }
      .cls-5 {
        fill: currentColor;
      }
      .cls-2 {
        stroke: #cfcfcf;
      }
      .cls-2, .cls-3 {
        stroke-linecap: round;
        stroke-linejoin: round;
      }
      .cls-3 {
        stroke: currentColor;
      }
      .cls-6 {
        fill: #cfcfcf;
      }
    </style>
  </defs>
  <g id="OBJECTS">
    <path class="cls-5" d="M329.24,91.67c-1.51-5.41-3.14-10.88-4.88-16.19-1.01-3.07-2.05-6.14-3.13-9.18-.55-1.55-1.12-3.1-1.7-4.65-.36-.96-.71-1.94-1.12-2.87-.83-1.85-2.09-3.46-3.52-4.86-1.48-1.45-3.12-2.73-4.81-3.93-3.49-2.48-7.2-4.66-10.98-6.69-7.85-4.21-16.04-7.86-24.4-11.03-4.26-1.62-8.57-3.1-12.95-4.38-2.08-.61-4.17-1.18-6.28-1.68-.21-.05-.42-.1-.63-.15,0,0,0,0,0,0h0s-.62-.24-.62-.24c-1.04-.4-2.08-.8-3.13-1.17-1.6-.57-3.22-1.1-4.86-1.55-2.01-.55-4.06-.98-6.11-1.38-1.81-.35-3.63-.66-5.45-.94-.75-.11-1.5-.23-2.26-.32-1.14-.14-2.29-.23-3.43-.34-.98-.09-1.95-.21-2.93-.27-1.26-.08-2.52-.1-3.78-.14-.84-.03-1.68-.08-2.52-.09-1.12,0-2.24.04-3.36.06-.85.02-1.71.02-2.56.06-1.14.05-2.27.15-3.41.23-.85.06-1.71.1-2.56.18-1.14.11-2.27.27-3.4.41-.88.11-1.77.2-2.65.33-3.3.49-6.58,1.09-9.83,1.85-.8.19-1.6.36-2.39.56-1.25.32-2.49.68-3.73,1.03-.98.28-1.97.53-2.95.83-1.24.38-2.46.8-3.68,1.22-.96.33-1.93.64-2.89.99-1.21.44-2.4.93-3.59,1.4-.94.37-1.89.73-2.82,1.12-1.16.48-2.29,1.01-3.43,1.52-.89.4-1.79.79-2.67,1.21-2.59,1.22-5.13,2.53-7.61,3.94-.85.48-1.67,1-2.5,1.51-1.06.64-2.12,1.28-3.15,1.96-.78.51-1.53,1.05-2.29,1.58-.97.68-1.94,1.35-2.88,2.06-.72.54-1.41,1.11-2.12,1.67-.9.71-1.8,1.42-2.67,2.16-.67.57-1.31,1.18-1.96,1.77-.82.74-1.64,1.47-2.43,2.24-.61.59-1.19,1.22-1.78,1.83-.73.76-1.47,1.51-2.17,2.29-.55.61-1.07,1.26-1.6,1.88-.66.78-1.33,1.55-1.96,2.35-.5.63-.96,1.29-1.44,1.94-.38.51-.78,1.01-1.15,1.53h0s0,0,0,0c0,0,0,0,0,0h0c.07.07.13.14.2.21,0,0,0,0,0,0h0c.14.15.27.29.41.44-.08-.06-.18-.19-.1-.12.2.19.49.45.72.7.37.38-.01.06.42.5,2.28,2.34,4.49,4.61,6.78,6.97.03.06-.02-.01-.09-.07.71.71,1.31,1.32,1.96,1.97.17.19.21.25.25.31-.05-.06,1.69,1.68,1.73,1.74.9.92,1.8,1.83,1.84,1.89h.08c.68.7.16.24.8.88.29.2,1.05,1.07,1.29,1.27,0,0,.3.31.27.31.12.07.33.32.53.51.08.07-.04-.06-.09-.12l.46.45c.17.18.19.24,0,.05,1.18,1.21,6.77,6.93,8.04,8.23-.14-.18-.54-.57-.66-.75.35.32.48.51.65.64.08.17.72.76.93,1.06l.12.07.15.18c1.49,1.47.35.33,1.64,1.66.76.76,1.15,1.09,1.56,1.53-.06-.06-.21-.25-.01-.06.01.05.54.51.61.63.19.19.81.82.63.58.09.12.63.69.29.37.18.19.36.38.5.51l-.23-.25c.63.64.95,1.01,1.39,1.4l-.22-.25c.38.38.69.7.81.88l-.4-.38c.63.64,1,1.02,1.54,1.53l-.18-.19c.69.64,4.18,4.15,4.83,4.73l-.26-.31.55.51c-.07-.06-.34-.18-.38-.24,1.13,1.15,6.95,7.07,8.02,8.16.41.44.03.11.03.11.52.51.25.2.68.64.12.13-.04-.01-.11-.07.2.19.36.38.39.38-.23-.25-.1-.18-.18-.3l.56.56h-.04c.13.13.37.27.91.84.93.96,1.92,1.97,2.85,2.92-.03-.01-.23-.2-.43-.39.12.12.31.32.42.44-.2-.25.41.39.24.2.19.18.34.32.49.46.13.13.25.25.37.37,0,0,0,0,0,0h0s0,0,0,0c0,0,0,0,0,0,0,0,.01,0,.02.01h0c-.04.02-.07.04-.12.08,0,0,.03-.04.09-.09h0s0,0,0,0h0s0,0,0,0c0,0,.01,0,.02.01,0,0,0,.02,0,.03h0s0,0,0,0c.04.01.09.06.13.09.02-.01.04-.03.06-.04.1-.07.19-.14.27-.2-.08.06-.18.13-.27.2-.02.01-.04.03-.05.04,0,0,.01,0,.02.01.23-.17.53-.38.58-.4-.1.07-.29.2-.5.35,0,0,0,.04-.02.09.04.02.07.05.08.06h.02s0,0,0,0c.91-.79,1.83-1.58,2.76-2.38.74-.64,1.47-1.28,2.21-1.91,1.22-1.05,2.42-2.08,3.57-3.08,3.23-3.3,6.13-6.26,8.48-8.66,1.61-1.66,3.76-3.88,5.4-5.58.91-.95-.58.65.14-.09,5.01-5.09.38-.39,5.45-5.54,5.83-5.99,28.1-28.84,33.28-34.15l.04-.04c.02-1.06,1.28-63.62,1.32-65.58.03-.93.05-1.82.13-4.76.01-.49.02-.97.03-1.46.02-.8.06-2.27.08-3.05.24-9.46.45-16.31.45-16.31,0,0-.87,1.09-2.24,2.79-.89,1.05-1.84,2.18-2.8,3.32-.87,1.04-1.72,2.05-2.51,2.98l.25-.31c-2.73,3.22-18.15,21.38-21.32,25.12l.43-.5c-2.74,3.27-2.4,2.79-4.59,5.35.33.3-2.02-2.5-2.92-3.57l.03.05c-1.35,1.6-4.43,5.27-6.65,7.92l.07.12c-1.89,2.24-5.39,6.37-6.73,7.96-3.09,3.62-7.83,9.2-11.97,14.07l-2.72-3.09-.15.19s-.13-.2-.3-.49c-.04,2.94-.1,3.83-.13,4.76-.04,1.96-1.3,64.52-1.32,65.58l.03.81c-.3,12.59-.09,3.71-.36,15.36-.03,4.57-.4,19.4-.45,23.44,0,.06-.03,1.36-.06,2.73-.03,1.37-.07,2.71-.07,2.53,0,1.32-.06,4.01-.12,6.8.06,2.79.12,5.48.12,6.8,0,.18.04-1.16.07-2.53.03-1.37.06-2.67.06-2.73.05-4.04.42-18.87.45-23.44.27-11.65.06-2.77.36-15.36l-.03-.81c.02-1.06,1.28-63.62,1.32-65.58.03-.93.09-1.82.13-4.76.17.29.3.49.3.49l.15-.19,2.72,3.09c4.14-4.87,8.88-10.45,11.97-14.07,1.34-1.59,4.84-5.72,6.73-7.96l-.07.12c2.22-2.65,5.3-6.32,6.65-7.92l-.03.05c.9-1.07,3.25-3.87,2.92-3.57,2.19-2.56,1.85-2.08,4.59-5.35l-.43.5c3.17-3.74,18.59-21.9,21.32-25.12l-.25.31c.79-.93,1.64-1.94,2.51-2.98.87-1.04,1.72-2.05,2.51-2.98.96-1.14,1.91-2.27,2.8-3.32,1.37-1.7,2.24-2.79,2.24-2.79,0,0-.21,6.85-.45,16.31-.02.78-.06,2.25-.08,3.05-.01.49-.02.97-.03,1.46-.08,2.94-.1,3.83-.13,4.76-.04,1.96-1.3,64.52-1.32,65.58l.03.81c-.3,12.59-.09,3.71-.36,15.36-.03,4.57-.4,19.4-.45,23.44,0,.06-.03,1.36-.06,2.73-.03,1.37-.07,2.71-.07,2.53,0,2.79-.06,6.06-.12,9.84.79-.63,1.58-1.26,2.39-1.87.72-.55,1.45-1.08,2.19-1.6.91-.65,1.83-1.27,2.77-1.88.74-.48,1.49-.94,2.24-1.4.92-.56,1.85-1.1,2.79-1.62.75-.41,1.5-.82,2.26-1.21.93-.49,1.87-.95,2.82-1.4.76-.36,1.52-.72,2.29-1.06.95-.43,1.91-.83,2.87-1.23.78-.32,1.55-.64,2.33-.94.98-.38,1.96-.74,2.95-1.09.8-.28,1.6-.56,2.4-.82,1.01-.33,2.02-.65,3.04-.95.83-.25,1.66-.49,2.49-.72,1.06-.29,2.12-.57,3.18-.83.87-.21,1.75-.41,2.63-.6,1.13-.25,2.27-.48,3.41-.69.94-.17,1.88-.33,2.83-.47,1.26-.19,2.53-.35,3.8-.49,1.07-.12,2.14-.23,3.22-.31,1.55-.12,3.1-.21,4.66-.25,1.3-.04,2.6-.05,3.9-.02,2.12.05,4.24.18,6.34.42,2.1.24,4.18.58,6.23,1.04.96.22,1.91.46,2.85.74,1.85.54,3.66,1.2,5.41,2,.83.38,1.64.8,2.44,1.24.51.28,1.01.58,1.5.89.56.35,1.1.72,1.64,1.11.44.32.87.65,1.29,1,.48.4.94.81,1.39,1.24.38.36.75.73,1.1,1.11.4.43.78.88,1.14,1.34.31.4.62.8.9,1.22.14.21.27.42.4.63.56-2.06,1.06-4.23,1.47-6.5.96-5.27,1.54-10.9,1.54-16.66,0-4.81-.39-9.81-1.16-14.73Z"/>
    <path class="cls-5" d="M64.78,27.04c.04,1.95.09,3.95.12,5.98h0c.03,1.31.09,3.79.14,6.12-.01-.27-.03-.52-.03-.63.04,2.11.08,4.08.12,5.85.01.45.02.9.03,1.36v.32c.1,4.48.16,7.38.16,7.6l.02.52c.03,1.68.07,3.54.11,5.53.12,5.18.02.86.25,10.72.03,4.74.42,20.12.47,24.31,0,.07.04,1.42.07,2.84.03,1.42.07,2.81.07,2.62,0,1.82.11,6.1.18,9.84.07,3.66.2,10.6.35,17.08-.01.02,0-.7-.03-2.37.07,3.5.15,7,.22,10.51-.01-1.01-.01-.03-.04-1.04.93.8,1.85,1.59,2.76,2.38h0s0,0,0,0h-.02c-.01-.01-.04-.04-.08-.06.02-.05.02-.09.02-.09.21-.15.4-.28.5-.35-.05.02-.35.23-.58.4,0,0-.01,0-.02-.01.01-.01.03-.03.05-.04.08-.06.19-.14.27-.2-.08.06-.17.13-.27.2-.02.01-.04.03-.06.04-.04-.03-.09-.08-.13-.09,0,0,0,0,0,0,0,0,0,0,0,0,0,0,0,.01,0,.03,0,0-.02,0-.02.02h0s0,0,0,0c0,0,0,0,0,0,0,0,0,0,0,.01,0,0,0,0,0,0,0,0,.02,0,.02,0,0,.01-.02.03-.02.03.02.04.03.08.06.11,0,0,0,0,0,0,.01.01.02.02.03.02,0,.01-.02.02-.02.02l.05.04s-.02.03-.01.03l.02-.02c.01.01-.01.03-.01.03,0-.01.01-.01.01-.02.02.02.05.09.08.11,0-.01.01-.01.02-.03-.02-.02,0-.02.02,0,0-.01.01,0,.02,0-.03.03,0,.02-.03.05h.02s.02,0,.02,0h0c.03,0-.01.04.02.02,0,0,.02.01.04,0,0-.01.01-.02.01-.02,0,0,0,0,0,0,0,0,0,0,0,0-.05.03-.08.07-.13.11-.36.2.02-.06-.41.23-.29.22-.67.53-1.02.75h0s-.05.03-.05.03c0,0,0,0,0,0,0,0,0,0,0,0,.16.17-.43-.38-.87-.86l.08.06c-.3-.31-.64-.67-1.1-1.14.12.13.2.25-.05,0-.47-.5-.81-.82-1.15-1.2l-.36-.32c-1.68-1.71-8.33-8.44-10.02-10.15l.07.06c-2.57-2.61-7.83-7.92-10.53-10.65-.39-.44-.96-1.01-1.38-1.45.23.26.14.19-.05,0-1.3-1.33-.1-.07-1.43-1.41-1.54-1.52-7.33-7.47-8.66-8.86-.76-.71-1.64-1.66-2.37-2.36l.08.07c-.79-.8-5.06-5.16-5.96-6.08l.11.13c-.79-.76-.65-.69-1.25-1.32.05.12-.63-.54-.89-.79h.02c-.37-.37-1.3-1.27-1.91-1.86h.04c-.54-.52-1.52-1.53-1.9-1.91-.86-.88-2.15-2.27-3.33-3.42l-.52-.61c.42-.5.84-.99,1.25-1.48.03.02.06.05.06.06,0,0-.03.03-.03.03.04.02.18.16.2.2,0,.02-.03.03-.03.03.02,0,.02,0,.03,0,0,0-.01,0-.02.01,0,0,0,0,0,0,.01-.01.02-.03.03-.04h0s0,.03,0,.03c0,0-.05.04-.05.04h.03l-.02-.02s.02-.01,0-.02c-.04-.01-.15-.06-.18-.06h0s-.03,0-.05-.02c.01.01.02.01.02.01h0s0-.03,0-.04h0s-.02,0-.04-.02h0s0,0-.01,0c.02,0,0-.02.02-.03-.02.02-.02,0-.04,0,.01-.02-.02,0-.01-.02,0,0-.02.01-.01.02,0-.02-.02,0-.06-.02-.02-.04,0-.02-.05-.04h0s-.02,0-.02,0c.02-.03-.01-.02.01-.06-.02,0,0-.01-.02,0-.02.02-.01.03,0,.04-.04-.02-.16-.18-.19-.22,0,0,.02-.01.02-.02h-.02s0,0,0,0c0,0,0-.02-.02,0,.01,0,0-.01,0-.02-.02.01,0-.04-.05-.02-.01-.01.02-.02,0-.04l-.02.02s-.09-.09-.1-.08c0,0,.01-.02.01-.03-.02-.01-.04-.03-.06-.04,0,0,0,0,0,0-.06-.06-.09-.13-.15-.19,0-.01.02-.02.01-.03,0,0-.02,0-.03,0,0,0,0,0,0,0,0,0,0-.01,0-.02h0s0,0,0,0c0,0-.01-.02,0-.04,0,.01,0,.03,0,.04,0,0,0,0,0,0,0,0,.02,0,.02-.02h0s0,0,0,0h0s.01-.02.01-.02c.07-.11.52-.52.52-.52h0s-.03.04-.03.04c.03,0,.03.04.03.05,0,0,.01.02.03.01h-.01s.04,0,.05,0h0s.03,0,.05-.02c0,.01-.02.04,0,.03h0s.05.07.07.07h0s.02.03.05.02c0,.03.06.12.09.12.02.01.02-.02.03,0,0,0,.01,0,.02-.01,0,0,.01.01,0,.03.87-1.04,1.72-2.05,2.51-2.98l-.25.31c2.73-3.22,18.15-21.38,21.32-25.12l-.43.5c2.74-3.27,2.4-2.79,4.59-5.35-.33-.3,2.02,2.5,2.92,3.57l-.03.05c1.35-1.6,4.43-5.27,6.65-7.92l-.07.12c1.89-2.24,5.39-6.37,6.73-7.96,3.09-3.62,7.83-9.2,11.97-14.07l2.72-3.09.38-.46s.13-.2.3-.49c.81,3.17,2.85,3.17-.04-1.2-.46.54-.81.95-1.07,1.27-1.3,1.52-1.88,2.24-1.81,2.12l.07-.12c.81-.92,1.65-1.88,2.74-3.17.01-.01.03-.03.04-.04-.7.84-1.31,1.55-.08-.15-1.89,2.17-.92,1.04-.08.15h0ZM63.29,151.44s0,0,0,0c0,0,0,.02,0,.03h0s0-.03,0-.03Z"/>
  </g>
</svg>
